<svg version="1.1" xmlns="http://www.w3.org/2000/svg" viewBox="0 0 1048 470.6745147954881" width="3144" height="1412.0235443864644">
  <!-- svg-source:excalidraw -->
  
  <defs>
    <style>
      @font-face {
        font-family: "Virgil";
        src: url("https://excalidraw.com/Virgil.woff2");
      }
      @font-face {
        font-family: "Cascadia";
        src: url("https://excalidraw.com/Cascadia.woff2");
      }
    </style>
  </defs>
  <rect x="0" y="0" width="1048" height="470.6745147954881" fill="#ffffff"></rect><g stroke-linecap="round" transform="translate(315.68561695543735 112.94339462105563) rotate(0 21.815342507438174 21.075839371592906)"><path d="M13.57 2.57 C17.64 0.93, 24.45 0.56, 28.82 1.69 C33.19 2.81, 37.26 5.58, 39.79 9.29 C42.31 13, 44.63 19.52, 43.97 23.96 C43.31 28.4, 39.5 32.8, 35.81 35.91 C32.13 39.02, 26.56 42.24, 21.87 42.63 C17.19 43.03, 11.13 41.15, 7.71 38.27 C4.28 35.4, 2.19 30, 1.31 25.37 C0.43 20.74, 0.16 14.47, 2.44 10.49 C4.72 6.51, 12.38 2.93, 14.97 1.5 C17.56 0.07, 17.8 1.69, 17.98 1.93 M26.9 -0.23 C31.26 0.64, 35.32 5.38, 38.01 9.08 C40.7 12.78, 43.22 17.7, 43.03 21.95 C42.85 26.2, 40 31.24, 36.9 34.59 C33.8 37.93, 28.77 41.33, 24.45 42 C20.12 42.68, 15.01 41.23, 10.96 38.62 C6.9 36.01, 1.83 30.86, 0.1 26.32 C-1.62 21.78, -1.57 15.33, 0.6 11.38 C2.76 7.43, 8.49 4.53, 13.09 2.61 C17.69 0.7, 26.05 0.33, 28.19 -0.11 C30.34 -0.56, 26.38 -0.49, 25.96 -0.05" stroke="none" stroke-width="0" fill="#7950f2"></path><path d="M25.97 1.3 C30.52 1.78, 35.48 3.86, 38.54 7.09 C41.6 10.33, 44.46 16.25, 44.33 20.71 C44.19 25.17, 40.68 30.21, 37.71 33.87 C34.74 37.53, 30.91 41.8, 26.52 42.67 C22.13 43.53, 15.58 41.32, 11.36 39.04 C7.15 36.76, 3.01 33.07, 1.23 28.99 C-0.54 24.9, -0.8 19.05, 0.73 14.53 C2.25 10.01, 5.75 4.02, 10.38 1.89 C15.01 -0.24, 24.88 1.64, 28.51 1.74 C32.14 1.85, 32.24 2.14, 32.18 2.5 M12.27 2.63 C16.42 1.14, 24.03 1.26, 28.76 2.37 C33.49 3.47, 38.22 5.45, 40.64 9.24 C43.07 13.04, 44.13 20.73, 43.31 25.14 C42.48 29.54, 39.27 33.04, 35.69 35.68 C32.1 38.33, 26.58 40.6, 21.8 41.03 C17.03 41.45, 10.85 40.71, 7.05 38.24 C3.26 35.77, -0.17 30.71, -0.96 26.2 C-1.76 21.7, -0.28 15.25, 2.28 11.22 C4.83 7.19, 12.67 3.54, 14.37 2.04 C16.07 0.55, 12.61 1.93, 12.48 2.27" stroke="#000000" stroke-width="4" fill="none"></path></g><g stroke-linecap="round" transform="translate(259.71337351019224 297.1955925291595) rotate(0 21.815342507438174 21.075839371592906)"><path d="M25.76 1.12 C29.95 1.57, 35.7 3.55, 38.56 7.12 C41.42 10.68, 42.83 17.79, 42.9 22.51 C42.97 27.24, 42.02 32.25, 38.99 35.47 C35.96 38.69, 29.38 41.33, 24.73 41.83 C20.08 42.33, 14.91 40.9, 11.08 38.47 C7.25 36.04, 3.51 31.53, 1.76 27.26 C0 23, -1.14 16.96, 0.57 12.87 C2.27 8.79, 7.53 4.77, 11.98 2.73 C16.44 0.7, 24.32 0.98, 27.3 0.67 C30.27 0.36, 29.92 0.62, 29.83 0.89 M13.35 2.55 C16.9 0.34, 21.65 -0.41, 26.16 0.46 C30.67 1.33, 37.69 4.27, 40.41 7.79 C43.14 11.31, 43.16 17.15, 42.52 21.56 C41.88 25.97, 39.5 31.06, 36.57 34.23 C33.63 37.4, 29.25 39.88, 24.92 40.57 C20.59 41.27, 14.59 40.52, 10.6 38.39 C6.61 36.27, 2.36 32.32, 0.98 27.81 C-0.4 23.31, 0.4 15.78, 2.3 11.37 C4.2 6.96, 10.63 2.99, 12.38 1.35 C14.12 -0.3, 12.74 1.22, 12.78 1.49" stroke="#000000" stroke-width="4" fill="none"></path></g><g stroke-linecap="round" transform="translate(432.2520121641744 212.866439344034) rotate(0 21.815342507438174 21.075839371592906)"><path d="M32.84 2.18 C36.73 3.92, 39.47 8.15, 41.24 12.54 C43 16.93, 44.67 24.16, 43.41 28.52 C42.16 32.87, 37.86 36.35, 33.72 38.69 C29.58 41.04, 23.38 43.1, 18.59 42.61 C13.8 42.11, 8.14 39.38, 4.96 35.74 C1.78 32.1, -0.36 25.29, -0.49 20.77 C-0.61 16.25, 1.2 12.06, 4.21 8.6 C7.22 5.14, 12.46 0.63, 17.55 0.02 C22.65 -0.58, 31.67 3.94, 34.8 4.97 C37.93 6, 36.61 6.2, 36.31 6.2 M29.98 0.72 C34.17 1.98, 38.71 8.1, 40.8 11.98 C42.9 15.87, 43.53 19.99, 42.52 24.05 C41.52 28.12, 38.51 33.25, 34.78 36.36 C31.04 39.47, 24.88 42.5, 20.09 42.73 C15.31 42.95, 9.4 40.79, 6.04 37.73 C2.69 34.68, 0.34 28.91, -0.02 24.4 C-0.39 19.9, 1.59 14.53, 3.83 10.71 C6.06 6.89, 9.23 2.95, 13.39 1.49 C17.55 0.03, 26.27 1.98, 28.77 1.97 C31.27 1.95, 28.55 1.16, 28.38 1.39" stroke="#000000" stroke-width="4" fill="none"></path></g><g stroke-linecap="round" transform="translate(490.18637304765775 297.1955925291595) rotate(0 21.815342507438174 21.075839371592906)"><path d="M16.55 -0.29 C20.87 -1.22, 28.71 1.15, 33.04 3.36 C37.37 5.57, 40.94 8.81, 42.51 12.98 C44.08 17.15, 44.07 23.92, 42.43 28.37 C40.8 32.81, 36.75 37.54, 32.7 39.64 C28.66 41.74, 22.78 41.64, 18.17 40.98 C13.56 40.32, 8.05 38.95, 5.05 35.67 C2.06 32.39, 0.27 25.77, 0.19 21.28 C0.11 16.8, 1.13 12.37, 4.58 8.76 C8.03 5.14, 17.44 1.07, 20.89 -0.41 C24.34 -1.89, 25.03 -0.58, 25.28 -0.14 M31.04 3.12 C35 4.65, 39.09 7.47, 40.93 11.2 C42.78 14.93, 43.45 20.9, 42.11 25.53 C40.78 30.16, 36.88 36.1, 32.92 38.98 C28.96 41.87, 22.84 43.34, 18.36 42.83 C13.88 42.33, 8.95 39.21, 6.02 35.96 C3.09 32.71, 1.33 27.77, 0.77 23.32 C0.21 18.86, 0.22 12.92, 2.66 9.24 C5.1 5.56, 10.83 2.52, 15.39 1.24 C19.95 -0.03, 27.61 1.42, 30.01 1.61 C32.41 1.8, 29.95 1.99, 29.79 2.39" stroke="#000000" stroke-width="4" fill="none"></path></g><g stroke-linecap="round" transform="translate(171.14585425141718 381.2342160821654) rotate(0 21.815342507438174 21.075839371592906)"><path d="M19.09 1.13 C23.63 0.23, 29.44 0.35, 33.3 2.61 C37.17 4.87, 40.89 10.29, 42.28 14.7 C43.68 19.12, 43.38 25.12, 41.68 29.08 C39.97 33.04, 36.12 36.25, 32.07 38.46 C28.02 40.68, 21.86 43.11, 17.38 42.37 C12.89 41.64, 8.08 37.52, 5.17 34.07 C2.25 30.61, 0.01 26.16, -0.11 21.64 C-0.23 17.13, 0.86 10.75, 4.46 6.98 C8.05 3.22, 17.79 0.09, 21.47 -0.93 C25.14 -1.94, 26.27 0.35, 26.51 0.9 M16.14 -0.52 C20.3 -2.13, 26.85 -1.16, 30.92 1.16 C34.99 3.47, 38.84 8.9, 40.56 13.36 C42.29 17.83, 42.44 23.72, 41.26 27.95 C40.08 32.19, 37.02 36.35, 33.46 38.78 C29.9 41.21, 24.73 43.01, 19.91 42.52 C15.1 42.03, 8.01 39.13, 4.55 35.84 C1.09 32.56, -0.64 27.43, -0.86 22.79 C-1.08 18.16, 0.47 11.73, 3.22 8.02 C5.98 4.31, 13.59 1.7, 15.68 0.54 C17.77 -0.62, 15.25 0.6, 15.77 1.04" stroke="#000000" stroke-width="4" fill="none"></path></g><g stroke-linecap="round" transform="translate(288.1992232324799 381.2342160821654) rotate(0 21.815342507438174 21.075839371592906)"><path d="M14.52 1.06 C18.41 -0.74, 24.68 0.21, 28.92 1.85 C33.17 3.5, 37.67 7.33, 39.99 10.94 C42.31 14.55, 43.58 19.08, 42.85 23.52 C42.11 27.97, 39 34.59, 35.57 37.62 C32.14 40.66, 26.88 41.65, 22.27 41.73 C17.66 41.82, 11.67 40.99, 7.89 38.13 C4.11 35.27, 0.56 29.3, -0.38 24.58 C-1.33 19.87, -0.48 13.74, 2.22 9.84 C4.92 5.93, 13.35 2.56, 15.84 1.14 C18.32 -0.27, 17.21 1.04, 17.12 1.35 M28.88 0.28 C33.03 1.84, 37.43 7.17, 39.59 11.43 C41.74 15.7, 42.52 21.52, 41.8 25.86 C41.07 30.21, 38.54 34.71, 35.26 37.51 C31.98 40.31, 26.99 42.7, 22.14 42.67 C17.29 42.64, 9.95 40.29, 6.15 37.34 C2.36 34.38, 0.07 29.52, -0.62 24.93 C-1.32 20.35, -0.38 13.78, 1.98 9.81 C4.34 5.84, 9.13 2.52, 13.54 1.14 C17.95 -0.25, 25.55 1.27, 28.45 1.47 C31.36 1.68, 30.71 2.17, 30.95 2.38" stroke="#000000" stroke-width="4" fill="none"></path></g><g stroke-linecap="round" transform="translate(405.2525922135444 381.2342160821654) rotate(0 21.815342507438174 21.075839371592906)"><path d="M30.62 2.5 C34.62 4.16, 38.88 8.7, 40.86 12.49 C42.83 16.28, 43.6 20.87, 42.48 25.25 C41.36 29.62, 37.82 35.97, 34.15 38.71 C30.48 41.45, 25.06 41.97, 20.45 41.68 C15.85 41.39, 10.05 40.1, 6.53 36.96 C3.01 33.82, -0.09 27.62, -0.65 22.85 C-1.21 18.08, 0.31 11.99, 3.18 8.34 C6.04 4.69, 11.31 1.71, 16.56 0.93 C21.81 0.15, 31.46 2.85, 34.66 3.66 C37.87 4.47, 36.01 5.59, 35.79 5.77 M12.87 1.91 C16.81 0.47, 23.09 0.56, 27.66 1.98 C32.24 3.4, 37.6 6.59, 40.32 10.44 C43.05 14.29, 44.98 20.57, 44.03 25.07 C43.08 29.58, 38.45 34.51, 34.63 37.45 C30.81 40.39, 25.75 42.8, 21.11 42.71 C16.48 42.62, 10.46 39.89, 6.81 36.92 C3.16 33.95, 0.05 29.26, -0.81 24.9 C-1.66 20.54, -1.09 14.6, 1.65 10.77 C4.4 6.94, 13.37 3.54, 15.65 1.92 C17.94 0.3, 15.61 0.68, 15.37 1.04" stroke="#000000" stroke-width="4" fill="none"></path></g><g stroke-linecap="round" transform="translate(522.3059611945935 381.2342160821654) rotate(0 21.815342507438174 21.075839371592906)"><path d="M17.95 0.87 C22.23 -0.31, 28.65 -0.22, 32.66 2.12 C36.67 4.46, 40.4 10.53, 42.01 14.9 C43.62 19.27, 43.96 24.09, 42.32 28.32 C40.68 32.56, 36.43 38.14, 32.17 40.31 C27.91 42.48, 21.42 42.5, 16.77 41.33 C12.11 40.16, 6.89 36.75, 4.22 33.32 C1.55 29.88, 0.39 25.03, 0.74 20.71 C1.09 16.38, 2.53 10.81, 6.32 7.37 C10.1 3.92, 19.53 1.06, 23.43 0.02 C27.33 -1.01, 29.8 0.87, 29.72 1.15 M12.46 2.21 C16.67 0.32, 23.74 -0.23, 28.53 1.18 C33.31 2.58, 38.9 6.74, 41.15 10.65 C43.4 14.56, 43 20.15, 42.03 24.62 C41.05 29.09, 38.79 34.62, 35.32 37.47 C31.84 40.32, 25.89 41.72, 21.17 41.73 C16.45 41.74, 10.66 40.25, 7 37.51 C3.35 34.76, -0.28 29.6, -0.75 25.28 C-1.23 20.95, 1.55 15.62, 4.16 11.53 C6.78 7.45, 13.41 2.23, 14.94 0.75 C16.46 -0.73, 13.32 2.36, 13.29 2.63" stroke="#000000" stroke-width="4" fill="none"></path></g><g stroke-linecap="round"><g transform="translate(318.9778880438446 151.0522581487353) rotate(0 -40.84552292065163 33.06767687925537)"><path d="M0 0 C-13.62 11.02, -68.08 55.11, -81.69 66.14 M0 0 C-13.62 11.02, -68.08 55.11, -81.69 66.14" stroke="#000000" stroke-width="4" fill="none"></path></g></g><g stroke-linecap="round"><g transform="translate(353.79353828248236 150.1666204271787) rotate(0 40.93147861670184 33.80248382727626)"><path d="M0 0 C13.64 11.27, 68.22 56.34, 81.86 67.6 M0 0 C13.64 11.27, 68.22 56.34, 81.86 67.6" stroke="#000000" stroke-width="4" fill="none"></path></g></g><g stroke-linecap="round"><g transform="translate(439.32783606427324 253.29817905964683) rotate(0 -14.198200095329867 21.99545468665633)"><path d="M0 0 C-4.73 7.33, -23.66 36.66, -28.4 43.99 M0 0 C-4.73 7.33, -23.66 36.66, -28.4 43.99" stroke="#000000" stroke-width="4" fill="none"></path></g></g><g stroke-linecap="round"><g transform="translate(468.415763370411 251.3330697338497) rotate(0 17.482323769516313 24.216096117918937)"><path d="M0 0 C5.83 8.07, 29.14 40.36, 34.96 48.43 M0 0 C5.83 8.07, 29.14 40.36, 34.96 48.43" stroke="#000000" stroke-width="4" fill="none"></path></g></g><g stroke-linecap="round"><g transform="translate(389.83953734236025 340.74010618351076) rotate(0 -7.528549348099887 19.90170187264289)"><path d="M0 0 C-2.51 6.63, -12.55 33.17, -15.06 39.8 M0 0 C-2.51 6.63, -12.55 33.17, -15.06 39.8" stroke="#000000" stroke-width="4" fill="none"></path></g></g><g stroke-linecap="round"><g transform="translate(410.4841293765096 339.89000553479127) rotate(0 5.7356413790435 20.452797999263566)"><path d="M0 0 C1.91 6.82, 9.56 34.09, 11.47 40.91 M0 0 C1.91 6.82, 9.56 34.09, 11.47 40.91" stroke="#000000" stroke-width="4" fill="none"></path></g></g><g stroke-linecap="round"><g transform="translate(501.32972473560835 337.7744477446395) rotate(0 -4.7249600383810275 21.804675190204875)"><path d="M0 0 C-1.57 7.27, -7.87 36.34, -9.45 43.61 M0 0 C-1.57 7.27, -7.87 36.34, -9.45 43.61" stroke="#000000" stroke-width="4" fill="none"></path></g></g><g stroke-linecap="round"><g transform="translate(523.873125168331 337.5284356766806) rotate(0 7.56851695385501 21.912103765912207)"><path d="M0 0 C2.52 7.3, 12.61 36.52, 15.14 43.82 M0 0 C2.52 7.3, 12.61 36.52, 15.14 43.82" stroke="#000000" stroke-width="4" fill="none"></path></g></g><g stroke-linecap="round"><g transform="translate(291.62509187197725 338.41341607108416) rotate(0 5.7537272281786045 21.362309746067524)"><path d="M0 0 C1.92 7.12, 9.59 35.6, 11.51 42.72 M0 0 C1.92 7.12, 9.59 35.6, 11.51 42.72" stroke="#000000" stroke-width="4" fill="none"></path></g></g><g stroke-linecap="round"><g transform="translate(271.40345666167445 338.7131494806217) rotate(0 -6.180206270312624 21.66354283646234)"><path d="M0 0 C-2.06 7.22, -10.3 36.11, -12.36 43.33 M0 0 C-2.06 7.22, -10.3 36.11, -12.36 43.33" stroke="#000000" stroke-width="4" fill="none"></path></g></g><g stroke-linecap="round"><g transform="translate(173.44604180823285 339.97935376072974) rotate(0 6.745751747842263 19.646073925388862)"><path d="M0 0 C2.25 6.55, 11.24 32.74, 13.49 39.29 M0 0 C2.25 6.55, 11.24 32.74, 13.49 39.29" stroke="#000000" stroke-width="4" fill="none"></path></g></g><g stroke-linecap="round"><g transform="translate(154.23747140626097 338.1439210284716) rotate(0 -7.072554713998073 21.66889023549436)"><path d="M0 0 C-2.36 7.22, -11.79 36.11, -14.15 43.34 M0 0 C-2.36 7.22, -11.79 36.11, -14.15 43.34" stroke="#000000" stroke-width="4" fill="none"></path></g></g><g stroke-linecap="round"><g transform="translate(204.83887992785208 250.6412745941716) rotate(0 -16.879771259065137 22.908625510862976)"><path d="M0 0 C-5.63 7.64, -28.13 38.18, -33.76 45.82 M0 0 C-5.63 7.64, -28.13 38.18, -33.76 45.82" stroke="#000000" stroke-width="4" fill="none"></path></g></g><g stroke-linecap="round"><g transform="translate(237.53149806203533 250.5710756536455) rotate(0 17.557278482674064 22.65081508559956)"><path d="M0 0 C5.85 7.55, 29.26 37.75, 35.11 45.3 M0 0 C5.85 7.55, 29.26 37.75, 35.11 45.3" stroke="#000000" stroke-width="4" fill="none"></path></g></g><g stroke-linecap="round" transform="translate(784.9269998030852 112.94339462105563) rotate(0 21.815342507438174 21.075839371592906)"><path d="M15.83 1.72 C20.21 0.07, 26.57 -0.47, 30.82 1.33 C35.06 3.12, 39.36 8.48, 41.31 12.49 C43.27 16.5, 43.72 21.23, 42.54 25.37 C41.35 29.51, 38.05 34.48, 34.21 37.33 C30.38 40.19, 24.25 42.58, 19.51 42.49 C14.77 42.4, 9.03 39.99, 5.77 36.81 C2.51 33.63, 0.21 27.92, -0.06 23.41 C-0.33 18.89, 1.41 13.49, 4.14 9.71 C6.88 5.92, 14 2.15, 16.36 0.7 C18.71 -0.76, 18.19 0.73, 18.29 0.99 M13.59 3.06 C17.69 1.55, 24.68 1.04, 29.01 2.03 C33.34 3.03, 37.02 5.38, 39.56 9.04 C42.09 12.7, 44.91 19.58, 44.23 24 C43.55 28.42, 39.26 32.39, 35.46 35.54 C31.67 38.68, 26.14 42.38, 21.45 42.88 C16.76 43.38, 10.6 41.46, 7.31 38.53 C4.02 35.59, 2.53 30.01, 1.71 25.27 C0.9 20.53, 0.5 13.91, 2.41 10.09 C4.33 6.27, 11.06 3.45, 13.18 2.35 C15.3 1.24, 14.88 3.27, 15.12 3.45" stroke="#000000" stroke-width="4" fill="none"></path></g><g stroke-linecap="round" transform="translate(730.1575575398253 298.1955925291595) rotate(0 21.815342507438174 21.075839371592906)"><path d="M22.63 -0.04 C27.06 -0.17, 34.17 2.25, 37.53 5.28 C40.88 8.31, 42.47 13.72, 42.77 18.14 C43.06 22.56, 41.68 28.1, 39.29 31.79 C36.91 35.49, 32.72 38.91, 28.45 40.31 C24.18 41.72, 18.03 41.79, 13.68 40.23 C9.33 38.68, 4.48 35.15, 2.36 30.99 C0.23 26.84, -0.18 19.88, 0.94 15.31 C2.05 10.73, 4.8 6.18, 9.03 3.57 C13.26 0.96, 23.11 0.11, 26.32 -0.37 C29.54 -0.85, 28.45 0.37, 28.32 0.71 M23.41 -0.68 C27.48 -0.81, 32.14 3.14, 35.5 6.07 C38.85 9, 42.87 12.77, 43.51 16.89 C44.14 21.01, 41.65 26.98, 39.31 30.81 C36.98 34.64, 33.62 38.03, 29.5 39.88 C25.39 41.73, 19.13 43.37, 14.6 41.9 C10.07 40.43, 4.9 35.3, 2.34 31.07 C-0.23 26.85, -1.88 20.73, -0.77 16.55 C0.33 12.38, 4.88 8.75, 8.98 6.03 C13.08 3.31, 21.63 1.06, 23.85 0.24 C26.06 -0.58, 22.7 0.85, 22.26 1.12" stroke="#000000" stroke-width="4" fill="none"></path></g><g stroke-linecap="round" transform="translate(902.6961961938166 212.866439344034) rotate(0 21.81534250743823 21.075839371592906)"><path d="M31.07 2.76 C35.09 4.3, 39.29 7.7, 41.17 11.56 C43.05 15.41, 43.66 21.36, 42.36 25.9 C41.06 30.44, 37.28 36.01, 33.36 38.79 C29.44 41.57, 23.38 43.05, 18.84 42.58 C14.3 42.1, 9.16 39.18, 6.11 35.94 C3.06 32.7, 1.04 27.61, 0.54 23.14 C0.04 18.68, 0.59 12.81, 3.11 9.13 C5.64 5.45, 10.54 1.94, 15.69 1.06 C20.84 0.18, 30.51 2.84, 34.03 3.85 C37.56 4.87, 37.06 6.82, 36.84 7.15 M31.44 1.74 C35.52 3.38, 41.19 9.24, 42.87 13.37 C44.54 17.51, 43.29 22.16, 41.49 26.55 C39.68 30.94, 36.04 37.05, 32.05 39.74 C28.05 42.43, 21.73 43.52, 17.52 42.7 C13.3 41.87, 9.69 38.5, 6.76 34.8 C3.83 31.11, 0.34 24.86, -0.07 20.52 C-0.47 16.19, 1.19 11.9, 4.34 8.8 C7.48 5.7, 14.12 2.99, 18.79 1.92 C23.46 0.86, 30.06 2.43, 32.36 2.41 C34.67 2.39, 32.87 1.44, 32.61 1.78" stroke="#000000" stroke-width="4" fill="none"></path></g><g stroke-linecap="round" transform="translate(960.6305570773 297.1955925291595) rotate(0 21.81534250743823 21.075839371592906)"><path d="M16.38 -0.16 C20.57 -1.65, 27.06 -0.7, 31.17 1.53 C35.27 3.75, 39.24 8.81, 41 13.17 C42.76 17.53, 42.98 23.43, 41.74 27.7 C40.5 31.96, 37.23 36.32, 33.56 38.76 C29.88 41.2, 24.44 42.85, 19.68 42.35 C14.92 41.84, 8.38 39.02, 5 35.73 C1.63 32.44, -0.33 27.2, -0.56 22.61 C-0.8 18.02, 0.05 11.93, 3.6 8.16 C7.16 4.39, 17.14 1.2, 20.77 -0.01 C24.4 -1.22, 25.09 0.49, 25.39 0.9 M30.03 1.38 C34.24 2.52, 37.63 5.37, 39.63 9.38 C41.64 13.39, 42.87 20.67, 42.05 25.44 C41.22 30.2, 37.86 35.22, 34.7 37.95 C31.53 40.69, 27.56 42.15, 23.07 41.83 C18.58 41.52, 11.6 38.76, 7.75 36.04 C3.91 33.33, 0.57 29.54, 0 25.54 C-0.57 21.55, 1.91 16.12, 4.33 12.06 C6.75 8, 10.28 3.18, 14.54 1.19 C18.81 -0.79, 27.54 0.07, 29.92 0.16 C32.3 0.25, 29.18 1.46, 28.81 1.76" stroke="#000000" stroke-width="4" fill="none"></path></g><g stroke-linecap="round" transform="translate(641.5900382810566 381.2342160821654) rotate(0 21.815342507438174 21.075839371592906)"><path d="M29.13 0.66 C33.31 2.12, 37.83 7.08, 40.02 11.24 C42.21 15.4, 43.05 21.23, 42.27 25.61 C41.5 29.98, 38.75 34.68, 35.36 37.49 C31.96 40.31, 26.7 42.54, 21.9 42.49 C17.11 42.45, 10.31 40.18, 6.61 37.22 C2.9 34.26, 0.38 29.29, -0.33 24.75 C-1.03 20.2, -0.02 13.88, 2.36 9.95 C4.73 6.01, 9.15 2.4, 13.93 1.14 C18.71 -0.12, 27.58 1.88, 31.03 2.39 C34.48 2.91, 34.54 4.03, 34.62 4.26 M15.3 -0.44 C19.19 -1.67, 25.75 0.54, 29.94 2.8 C34.14 5.06, 38.14 9.16, 40.49 13.09 C42.84 17.03, 45.11 22.36, 44.05 26.39 C42.98 30.41, 38.21 34.5, 34.1 37.24 C29.99 39.97, 23.79 42.8, 19.39 42.82 C14.99 42.83, 10.87 40.69, 7.69 37.33 C4.51 33.97, 0.79 27.57, 0.3 22.64 C-0.19 17.71, 2.11 11.39, 4.74 7.75 C7.37 4.1, 14.26 2.1, 16.08 0.78 C17.9 -0.55, 15.44 -0.42, 15.68 -0.19" stroke="#000000" stroke-width="4" fill="none"></path></g><g stroke-linecap="round" transform="translate(758.643407262123 381.2342160821654) rotate(0 21.815342507438174 21.075839371592906)"><path d="M13.3 1.72 C17.29 0.18, 23.62 0.27, 28.14 1.72 C32.66 3.17, 37.81 6.56, 40.42 10.42 C43.03 14.28, 44.69 20.41, 43.8 24.9 C42.91 29.39, 38.81 34.4, 35.08 37.34 C31.35 40.27, 26.06 42.57, 21.41 42.52 C16.76 42.48, 10.82 40, 7.19 37.06 C3.55 34.13, 0.44 29.29, -0.42 24.91 C-1.27 20.52, -0.94 14.73, 2.04 10.75 C5.03 6.77, 14.54 2.79, 17.47 1.03 C20.4 -0.74, 19.77 -0.21, 19.61 0.15 M21.43 0.76 C25.86 0.98, 31.45 3.39, 35.32 6.25 C39.19 9.11, 43.83 13.79, 44.64 17.94 C45.45 22.08, 42.93 27.13, 40.18 31.13 C37.42 35.13, 32.31 40.1, 28.11 41.92 C23.91 43.74, 19.2 43.91, 14.97 42.05 C10.74 40.2, 5.03 35.2, 2.73 30.78 C0.44 26.35, 0.28 19.87, 1.19 15.49 C2.1 11.11, 4.75 7.3, 8.21 4.5 C11.66 1.71, 19.39 -0.48, 21.91 -1.26 C24.43 -2.03, 23.24 -0.55, 23.3 -0.13" stroke="#000000" stroke-width="4" fill="none"></path></g><g stroke-linecap="round" transform="translate(875.6967762431793 381.2342160821654) rotate(0 21.81534250743823 21.075839371592906)"><path d="M12.94 1.95 C17.09 0.09, 23.96 -0.26, 28.62 1.16 C33.29 2.58, 38.61 6.59, 40.92 10.48 C43.23 14.37, 43.36 20.04, 42.48 24.5 C41.59 28.97, 39.1 34.39, 35.61 37.28 C32.13 40.18, 26.25 41.83, 21.55 41.87 C16.85 41.91, 11.04 40.28, 7.39 37.51 C3.74 34.74, 0.26 29.61, -0.36 25.25 C-0.98 20.89, 0.94 15.46, 3.67 11.34 C6.4 7.21, 13.89 2.14, 16.01 0.5 C18.12 -1.14, 16.35 1.22, 16.35 1.51 M12.72 2.2 C17.17 0.21, 25.42 -0.32, 30.03 0.8 C34.64 1.92, 38.22 4.89, 40.39 8.93 C42.55 12.97, 43.5 20.13, 43.04 25.04 C42.58 29.95, 41.05 35.56, 37.64 38.4 C34.22 41.23, 27.33 42.38, 22.53 42.05 C17.73 41.72, 12.59 39.21, 8.86 36.42 C5.13 33.63, 1.31 29.76, 0.15 25.3 C-1.01 20.84, -0.49 13.74, 1.9 9.67 C4.3 5.6, 12.56 2.31, 14.53 0.87 C16.51 -0.57, 13.89 0.58, 13.76 1.01" stroke="#000000" stroke-width="4" fill="none"></path></g><g stroke-linecap="round" transform="translate(992.7501452242338 381.2342160821654) rotate(0 21.81534250743823 21.075839371592906)"><path d="M25.8 0.43 C30.45 0.96, 36.42 4.63, 39.24 8.17 C42.06 11.71, 42.99 17.17, 42.73 21.69 C42.46 26.21, 40.72 31.96, 37.68 35.28 C34.63 38.6, 29.11 40.98, 24.46 41.62 C19.81 42.26, 13.8 41.4, 9.79 39.13 C5.78 36.85, 1.63 32.18, 0.4 27.98 C-0.82 23.77, 0.51 18.2, 2.44 13.9 C4.36 9.6, 7.95 4.31, 11.94 2.18 C15.94 0.05, 23.77 1.39, 26.41 1.11 C29.05 0.84, 27.91 0.41, 27.79 0.52 M28.4 0.33 C32.96 0.8, 36.98 3.72, 39.45 7.56 C41.92 11.41, 43.33 18.46, 43.23 23.41 C43.13 28.36, 42.03 34.18, 38.87 37.27 C35.7 40.36, 29 41.93, 24.22 41.95 C19.45 41.97, 14.17 39.91, 10.22 37.4 C6.27 34.89, 2.06 31.27, 0.55 26.89 C-0.97 22.52, -0.92 15.37, 1.15 11.14 C3.22 6.91, 8.69 3.41, 12.98 1.52 C17.27 -0.36, 24.7 -0.1, 26.9 -0.17 C29.09 -0.24, 26.21 0.45, 26.17 1.11" stroke="#000000" stroke-width="4" fill="none"></path></g><g stroke-linecap="round"><g transform="translate(789.0968631364842 148.0134029467216) rotate(0 -41.08541780843353 34.26116187295793)"><path d="M0 0 C-13.7 11.42, -68.48 57.1, -82.17 68.52 M0 0 C-13.7 11.42, -68.48 57.1, -82.17 68.52" stroke="#000000" stroke-width="4" fill="none"></path></g></g><g stroke-linecap="round"><g transform="translate(824.1073768231147 148.27233982323833) rotate(0 41.31233939578783 35.17610477955213)"><path d="M0 0 C13.77 11.73, 68.85 58.63, 82.62 70.35 M0 0 C13.77 11.73, 68.85 58.63, 82.62 70.35" stroke="#000000" stroke-width="4" fill="none"></path></g></g><g stroke-linecap="round"><g transform="translate(909.7942279469592 252.9488590431274) rotate(0 -15.502322393892427 23.175821949713963)"><path d="M0 0 C-5.17 7.73, -25.84 38.63, -31 46.35 M0 0 C-5.17 7.73, -25.84 38.63, -31 46.35" stroke="#000000" stroke-width="4" fill="none"></path></g></g><g stroke-linecap="round"><g transform="translate(938.9760361268688 251.24275384372413) rotate(0 17.424279406101505 23.805728346174874)"><path d="M0 0 C5.81 7.94, 29.04 39.68, 34.85 47.61 M0 0 C5.81 7.94, 29.04 39.68, 34.85 47.61" stroke="#000000" stroke-width="4" fill="none"></path></g></g><g stroke-linecap="round"><g transform="translate(856.7039573009176 339.60461568784604) rotate(0 -6.2905319506717206 19.879485953661515)"><path d="M0 0 C-2.1 6.63, -10.48 33.13, -12.58 39.76 M0 0 C-2.1 6.63, -10.48 33.13, -12.58 39.76" stroke="#000000" stroke-width="4" fill="none"></path></g></g><g stroke-linecap="round"><g transform="translate(879.8716614040193 338.9053804214518) rotate(0 5.853530233235688 20.867805984867573)"><path d="M0 0 C1.95 6.96, 9.76 34.78, 11.71 41.74 M0 0 C1.95 6.96, 9.76 34.78, 11.71 41.74" stroke="#000000" stroke-width="4" fill="none"></path></g></g><g stroke-linecap="round"><g transform="translate(971.7739087652378 336.8633963110324) rotate(0 -4.7249600383810275 21.804675190204875)"><path d="M0 0 C-1.57 7.27, -7.87 36.34, -9.45 43.61 M0 0 C-1.57 7.27, -7.87 36.34, -9.45 43.61" stroke="#000000" stroke-width="4" fill="none"></path></g></g><g stroke-linecap="round"><g transform="translate(994.3173091979686 336.6173842430753) rotate(0 7.56851695385501 21.912103765912207)"><path d="M0 0 C2.52 7.3, 12.61 36.52, 15.14 43.82 M0 0 C2.52 7.3, 12.61 36.52, 15.14 43.82" stroke="#000000" stroke-width="4" fill="none"></path></g></g><g stroke-linecap="round"><g transform="translate(762.2654863322966 338.97324532261393) rotate(0 5.623150495838786 20.636461159605574)"><path d="M0 0 C1.87 6.88, 9.37 34.39, 11.25 41.27 M0 0 C1.87 6.88, 9.37 34.39, 11.25 41.27" stroke="#000000" stroke-width="4" fill="none"></path></g></g><g stroke-linecap="round"><g transform="translate(741.7014563248533 338.98357284892666) rotate(0 -6.107114087084142 21.07280543550587)"><path d="M0 0 C-2.04 7.02, -10.18 35.12, -12.21 42.15 M0 0 C-2.04 7.02, -10.18 35.12, -12.21 42.15" stroke="#000000" stroke-width="4" fill="none"></path></g></g><g stroke-linecap="round"><g transform="translate(643.8902258378723 339.0683023271263) rotate(0 6.745751747842235 19.646073925388862)"><path d="M0 0 C2.25 6.55, 11.24 32.74, 13.49 39.29 M0 0 C2.25 6.55, 11.24 32.74, 13.49 39.29" stroke="#000000" stroke-width="4" fill="none"></path></g></g><g stroke-linecap="round"><g transform="translate(624.6816554358923 337.23286959486177) rotate(0 -7.072554713998102 21.66889023549436)"><path d="M0 0 C-2.36 7.22, -11.79 36.11, -14.15 43.34 M0 0 C-2.36 7.22, -11.79 36.11, -14.15 43.34" stroke="#000000" stroke-width="4" fill="none"></path></g></g><g stroke-linecap="round"><g transform="translate(677.0697471165442 252.1769593592818) rotate(0 -15.352287623333154 20.953951953355272)"><path d="M0 0 C-5.12 6.98, -25.59 34.92, -30.7 41.91 M0 0 C-5.12 6.98, -25.59 34.92, -30.7 41.91" stroke="#000000" stroke-width="4" fill="none"></path></g></g><g stroke-linecap="round"><g transform="translate(707.0745859898398 250.97714362992053) rotate(0 16.413704378351383 23.95297800798494)"><path d="M0 0 C5.47 7.98, 27.36 39.92, 32.83 47.91 M0 0 C5.47 7.98, 27.36 39.92, 32.83 47.91" stroke="#000000" stroke-width="4" fill="none"></path></g></g><g stroke-linecap="round" transform="translate(548.7291758516487 10) rotate(0 21.815342507438174 21.075839371592878)"><path d="M13.87 2.29 C17.79 0.16, 23.46 -0.78, 27.94 0.47 C32.42 1.73, 38.29 6.08, 40.76 9.85 C43.22 13.62, 43.58 18.56, 42.74 23.1 C41.9 27.65, 39.16 33.87, 35.7 37.13 C32.24 40.38, 26.36 42.57, 21.96 42.64 C17.57 42.72, 12.91 40.54, 9.32 37.57 C5.74 34.6, 1.64 29.1, 0.46 24.81 C-0.72 20.52, -0.42 15.66, 2.25 11.84 C4.91 8.01, 13.86 3.74, 16.46 1.89 C19.05 0.04, 17.8 0.7, 17.82 0.75 M18.58 0.72 C22.86 0.14, 29.8 1.16, 33.71 3.48 C37.63 5.8, 40.73 10.24, 42.05 14.65 C43.38 19.05, 43.31 25.69, 41.66 29.93 C40.02 34.16, 36.56 38.28, 32.18 40.06 C27.8 41.84, 20.29 41.97, 15.4 40.6 C10.51 39.22, 5.18 35.31, 2.82 31.82 C0.45 28.33, 0.37 24.03, 1.19 19.65 C2.01 15.27, 4.75 8.98, 7.74 5.55 C10.73 2.11, 17.2 -0.08, 19.11 -0.93 C21.02 -1.78, 19.04 -0.19, 19.21 0.43" stroke="#000000" stroke-width="4" fill="none"></path></g><g stroke-linecap="round"><g transform="translate(547.795234292518 37.62820708296749) rotate(0 -95.865704462797 40.2277827593893)"><path d="M0 0 C-31.96 13.41, -159.78 67.05, -191.73 80.46 M0 0 C-31.96 13.41, -159.78 67.05, -191.73 80.46" stroke="#000000" stroke-width="4" fill="none"></path></g></g><g stroke-linecap="round"><g transform="translate(592.4282585803346 37.16921310900034) rotate(0 97.54280897971086 41.894037244249944)"><path d="M0 0 C32.51 13.96, 162.57 69.82, 195.09 83.79 M0 0 C32.51 13.96, 162.57 69.82, 195.09 83.79" stroke="#000000" stroke-width="4" fill="none"></path></g></g><g transform="translate(331 84.67451479548811) rotate(0 3.5 12.5)"><text x="0" y="18" font-family="Virgil, Segoe UI Emoji" font-size="20px" fill="#000000" text-anchor="start" style="white-space: pre;" direction="ltr">1</text></g><g transform="translate(812 87.67451479548811) rotate(0 8 12.5)"><text x="0" y="18" font-family="Virgil, Segoe UI Emoji" font-size="20px" fill="#000000" text-anchor="start" style="white-space: pre;" direction="ltr">2</text></g><g transform="translate(200 191.6745147954881) rotate(0 8 12.5)"><text x="0" y="18" font-family="Virgil, Segoe UI Emoji" font-size="20px" fill="#000000" text-anchor="start" style="white-space: pre;" direction="ltr">3</text></g><g transform="translate(469 188.6745147954881) rotate(0 7.5 12.5)"><text x="0" y="18" font-family="Virgil, Segoe UI Emoji" font-size="20px" fill="#000000" text-anchor="start" style="white-space: pre;" direction="ltr">4</text></g><g transform="translate(671 192.6745147954881) rotate(0 7 12.5)"><text x="0" y="18" font-family="Virgil, Segoe UI Emoji" font-size="20px" fill="#000000" text-anchor="start" style="white-space: pre;" direction="ltr">5</text></g><g transform="translate(944 195.6745147954881) rotate(0 7.5 12.5)"><text x="0" y="18" font-family="Virgil, Segoe UI Emoji" font-size="20px" fill="#000000" text-anchor="start" style="white-space: pre;" direction="ltr">6</text></g><g transform="translate(140 268.6745147954881) rotate(0 6.5 12.5)"><text x="0" y="18" font-family="Virgil, Segoe UI Emoji" font-size="20px" fill="#000000" text-anchor="start" style="white-space: pre;" direction="ltr">7</text></g><g transform="translate(289 271.6745147954881) rotate(0 8.5 12.5)"><text x="0" y="18" font-family="Virgil, Segoe UI Emoji" font-size="20px" fill="#000000" text-anchor="start" style="white-space: pre;" direction="ltr">8</text></g><g transform="translate(381 267.6745147954881) rotate(0 7 12.5)"><text x="0" y="18" font-family="Virgil, Segoe UI Emoji" font-size="20px" fill="#000000" text-anchor="start" style="white-space: pre;" direction="ltr">9</text></g><g transform="translate(514 267.6745147954881) rotate(0 10.5 12.5)"><text x="0" y="18" font-family="Virgil, Segoe UI Emoji" font-size="20px" fill="#000000" text-anchor="start" style="white-space: pre;" direction="ltr">10</text></g><g transform="translate(620 270.6745147954881) rotate(0 6.5 12.5)"><text x="0" y="18" font-family="Virgil, Segoe UI Emoji" font-size="20px" fill="#000000" text-anchor="start" style="white-space: pre;" direction="ltr">11</text></g><g transform="translate(766 268.6745147954881) rotate(0 11 12.5)"><text x="0" y="18" font-family="Virgil, Segoe UI Emoji" font-size="20px" fill="#000000" text-anchor="start" style="white-space: pre;" direction="ltr">12</text></g><g transform="translate(848 271.6745147954881) rotate(0 10.5 12.5)"><text x="0" y="18" font-family="Virgil, Segoe UI Emoji" font-size="20px" fill="#000000" text-anchor="start" style="white-space: pre;" direction="ltr">13</text></g><g transform="translate(989 270.6745147954881) rotate(0 10 12.5)"><text x="0" y="18" font-family="Virgil, Segoe UI Emoji" font-size="20px" fill="#000000" text-anchor="start" style="white-space: pre;" direction="ltr">14</text></g><g stroke-linecap="round" transform="translate(200.18465749256188 214.5986754238952) rotate(0 21.815342507438174 21.075839371592906)"><path d="M12.74 2.05 C16.78 -0.24, 24.06 -0.81, 28.43 0.25 C32.81 1.31, 36.46 4.67, 38.99 8.38 C41.52 12.09, 43.75 17.84, 43.6 22.51 C43.44 27.18, 41.31 33.29, 38.04 36.39 C34.77 39.5, 28.65 40.78, 23.98 41.15 C19.3 41.53, 13.81 40.94, 9.98 38.65 C6.15 36.35, 2.39 31.78, 1.01 27.37 C-0.37 22.97, -0.89 16.59, 1.72 12.22 C4.32 7.85, 13.71 3.06, 16.65 1.15 C19.59 -0.76, 19.21 0.48, 19.35 0.75 M17.41 0.33 C22.08 -0.87, 28.82 -0.64, 32.78 1.37 C36.75 3.38, 39.74 8.33, 41.2 12.39 C42.65 16.46, 42.8 21.3, 41.51 25.76 C40.21 30.23, 37.25 36.56, 33.44 39.18 C29.63 41.79, 23.28 41.86, 18.65 41.46 C14.01 41.07, 8.51 40.02, 5.65 36.8 C2.79 33.57, 1.82 27.02, 1.49 22.11 C1.15 17.2, 0.96 10.82, 3.64 7.34 C6.31 3.87, 15.37 2.16, 17.52 1.25 C19.68 0.33, 16.87 1.53, 16.57 1.83" stroke="none" stroke-width="0" fill="#7950f2"></path><path d="M28.4 0.33 C32.95 1.55, 39.1 6.19, 41.62 10.24 C44.14 14.29, 44.37 20.13, 43.52 24.61 C42.68 29.1, 40.09 34.09, 36.54 37.12 C33 40.16, 26.98 42.76, 22.24 42.82 C17.51 42.88, 11.66 40.41, 8.12 37.47 C4.58 34.53, 1.96 29.77, 1 25.17 C0.03 20.57, -0.01 13.87, 2.35 9.87 C4.72 5.87, 10.61 2.46, 15.16 1.17 C19.72 -0.12, 27.18 1.99, 29.7 2.13 C32.22 2.27, 30.37 1.74, 30.3 2.01 M22.43 1.19 C26.64 1.18, 32.25 1.86, 36 4.92 C39.76 7.98, 44.22 15.02, 44.96 19.54 C45.7 24.07, 43.41 28.34, 40.47 32.07 C37.52 35.8, 32.06 40.49, 27.31 41.91 C22.55 43.33, 15.88 42.71, 11.91 40.6 C7.95 38.5, 5.55 33.37, 3.53 29.28 C1.51 25.19, -1.16 20.52, -0.2 16.04 C0.76 11.56, 5.08 5.28, 9.29 2.4 C13.5 -0.47, 22.82 -1.14, 25.07 -1.21 C27.32 -1.29, 22.88 1.25, 22.8 1.96" stroke="#000000" stroke-width="4" fill="none"></path></g><g stroke-linecap="round" transform="translate(143.18465749256188 296.5986754238952) rotate(0 21.815342507438174 21.075839371592906)"><path d="M15.23 0.39 C19.21 -0.93, 25.33 0.87, 29.63 2.58 C33.93 4.29, 38.69 6.73, 41.03 10.64 C43.37 14.55, 44.66 21.54, 43.69 26.02 C42.72 30.5, 38.92 34.72, 35.2 37.52 C31.49 40.32, 26.07 43.15, 21.39 42.84 C16.71 42.54, 10.73 38.98, 7.12 35.7 C3.51 32.42, 0.15 27.64, -0.29 23.15 C-0.72 18.66, 1.28 12.68, 4.52 8.76 C7.75 4.84, 16.13 1.13, 19.13 -0.38 C22.12 -1.89, 22.35 -0.84, 22.46 -0.29 M22.7 -1.16 C27.35 -1.1, 34.81 2.19, 38.29 5.57 C41.76 8.94, 43.35 14.67, 43.57 19.08 C43.78 23.49, 42.21 28.38, 39.58 32.05 C36.95 35.71, 32.23 39.48, 27.78 41.07 C23.33 42.66, 17.37 43.34, 12.89 41.58 C8.41 39.82, 3.14 34.8, 0.9 30.52 C-1.33 26.25, -2.09 20.42, -0.54 15.95 C1.01 11.47, 6.27 6.16, 10.21 3.66 C14.15 1.16, 20.92 1.51, 23.09 0.92 C25.27 0.34, 23.49 0.02, 23.28 0.15" stroke="none" stroke-width="0" fill="#7950f2"></path><path d="M12.57 2.49 C16.22 0.42, 22.1 -0.2, 26.59 1.01 C31.09 2.23, 36.61 6.15, 39.55 9.77 C42.48 13.38, 44.7 18.27, 44.2 22.69 C43.7 27.1, 40.04 32.88, 36.53 36.26 C33.01 39.65, 27.81 42.58, 23.12 42.99 C18.42 43.4, 12.21 41.48, 8.35 38.7 C4.5 35.93, 0.96 30.86, 0 26.31 C-0.95 21.77, 0.27 15.57, 2.62 11.43 C4.97 7.28, 11.83 3.21, 14.12 1.46 C16.4 -0.29, 16.19 0.69, 16.33 0.92 M17.37 -0.09 C21.61 -1, 27.71 1.49, 32 3.95 C36.28 6.4, 41.42 10.39, 43.1 14.63 C44.78 18.88, 43.91 25.19, 42.09 29.41 C40.27 33.64, 36.36 37.84, 32.18 39.99 C27.99 42.13, 21.5 43.33, 16.99 42.28 C12.47 41.23, 7.68 37.34, 5.07 33.7 C2.47 30.07, 1.37 24.78, 1.35 20.47 C1.33 16.16, 2.21 11.1, 4.95 7.86 C7.7 4.62, 15.32 2.23, 17.81 1.03 C20.29 -0.17, 19.7 0.51, 19.87 0.65" stroke="#000000" stroke-width="4" fill="none"></path></g><g stroke-linecap="round" transform="translate(380.18465749256194 299.5986754238952) rotate(0 21.815342507438203 21.075839371592906)"><path d="M13.17 1.78 C16.98 -0.22, 23.4 -0.99, 27.88 0.26 C32.37 1.51, 37.48 5.25, 40.09 9.27 C42.7 13.29, 44.23 19.81, 43.54 24.37 C42.86 28.92, 39.52 33.64, 35.98 36.61 C32.44 39.58, 26.71 41.98, 22.3 42.18 C17.89 42.38, 13.2 40.42, 9.54 37.81 C5.88 35.2, 1.56 30.94, 0.34 26.54 C-0.89 22.14, -0.04 15.7, 2.2 11.42 C4.43 7.15, 11.43 2.57, 13.73 0.86 C16.03 -0.85, 15.88 0.69, 16.01 1.16 M27.07 -0.51 C31.83 0.08, 38.28 4.75, 41.02 8.62 C43.75 12.48, 43.88 18.01, 43.49 22.69 C43.1 27.36, 42.17 33.27, 38.7 36.66 C35.23 40.06, 27.51 42.76, 22.67 43.07 C17.83 43.38, 13.42 41.41, 9.67 38.51 C5.91 35.6, 1.36 29.88, 0.14 25.64 C-1.08 21.41, 0.15 17.12, 2.36 13.07 C4.58 9.03, 9.43 3.29, 13.42 1.4 C17.41 -0.5, 24.09 1.57, 26.31 1.72 C28.52 1.86, 26.57 2.09, 26.73 2.25" stroke="none" stroke-width="0" fill="#7950f2"></path><path d="M19.65 0.46 C24.13 -0.33, 29.85 1.51, 33.66 3.98 C37.47 6.45, 41.22 11.01, 42.51 15.29 C43.8 19.58, 43.18 25.67, 41.4 29.69 C39.61 33.71, 35.73 37.47, 31.8 39.42 C27.86 41.37, 22.37 42.29, 17.76 41.41 C13.15 40.52, 7.14 37.6, 4.13 34.1 C1.11 30.61, -0.78 25.01, -0.33 20.43 C0.13 15.86, 3.3 10.1, 6.86 6.65 C10.42 3.2, 18.45 0.71, 21.04 -0.29 C23.64 -1.28, 22.52 0.2, 22.42 0.66 M19.09 1.36 C23.51 0.68, 30.09 0.13, 34.23 2.6 C38.37 5.06, 42.66 11.63, 43.94 16.14 C45.23 20.65, 43.93 25.43, 41.93 29.64 C39.92 33.85, 36.2 39.64, 31.91 41.41 C27.62 43.18, 20.99 41.77, 16.19 40.25 C11.38 38.72, 5.52 36.01, 3.08 32.26 C0.64 28.51, 0.83 22.29, 1.54 17.75 C2.25 13.21, 4.08 8.15, 7.36 5.02 C10.64 1.89, 18.83 -0.41, 21.2 -1.02 C23.57 -1.62, 21.66 0.86, 21.57 1.39" stroke="#000000" stroke-width="4" fill="none"></path></g><g stroke-linecap="round" transform="translate(613.1846574925619 297.5986754238952) rotate(0 21.815342507438174 21.075839371592906)"><path d="M11.48 2.97 C15.22 0.61, 21.97 -1.11, 26.78 -0.2 C31.58 0.7, 37.53 4.64, 40.32 8.4 C43.11 12.16, 43.84 17.72, 43.54 22.34 C43.24 26.96, 41.87 32.74, 38.52 36.13 C35.17 39.53, 28.22 42.27, 23.45 42.7 C18.68 43.12, 13.74 41.41, 9.9 38.69 C6.07 35.96, 1.76 30.6, 0.46 26.34 C-0.85 22.09, -0.38 17.42, 2.08 13.16 C4.54 8.89, 12.81 2.7, 15.23 0.77 C17.65 -1.16, 16.63 1.04, 16.59 1.56 M25.15 1.71 C29.78 2.1, 36.16 3.79, 39.35 6.86 C42.53 9.94, 44.3 15.53, 44.27 20.16 C44.24 24.78, 42.03 31.12, 39.17 34.64 C36.31 38.15, 31.71 40.58, 27.1 41.25 C22.5 41.92, 16.02 40.57, 11.56 38.65 C7.09 36.74, 2.26 34.02, 0.33 29.74 C-1.61 25.46, -1.86 17.61, -0.07 12.97 C1.73 8.33, 6.7 4.25, 11.11 1.89 C15.53 -0.48, 23.98 -1.18, 26.41 -1.23 C28.83 -1.28, 26.09 0.83, 25.67 1.57" stroke="none" stroke-width="0" fill="#7950f2"></path><path d="M15.23 0.39 C19.21 -0.93, 25.33 0.87, 29.63 2.58 C33.93 4.29, 38.69 6.73, 41.03 10.64 C43.37 14.55, 44.66 21.54, 43.69 26.02 C42.72 30.5, 38.92 34.72, 35.2 37.52 C31.49 40.32, 26.07 43.15, 21.39 42.84 C16.71 42.54, 10.73 38.98, 7.12 35.7 C3.51 32.42, 0.15 27.64, -0.29 23.15 C-0.72 18.66, 1.28 12.68, 4.52 8.76 C7.75 4.84, 16.13 1.13, 19.13 -0.38 C22.12 -1.89, 22.35 -0.84, 22.46 -0.29 M22.7 -1.16 C27.35 -1.1, 34.81 2.19, 38.29 5.57 C41.76 8.94, 43.35 14.67, 43.57 19.08 C43.78 23.49, 42.21 28.38, 39.58 32.05 C36.95 35.71, 32.23 39.48, 27.78 41.07 C23.33 42.66, 17.37 43.34, 12.89 41.58 C8.41 39.82, 3.14 34.8, 0.9 30.52 C-1.33 26.25, -2.09 20.42, -0.54 15.95 C1.01 11.47, 6.27 6.16, 10.21 3.66 C14.15 1.16, 20.92 1.51, 23.09 0.92 C25.27 0.34, 23.49 0.02, 23.28 0.15" stroke="#000000" stroke-width="4" fill="none"></path></g><g stroke-linecap="round" transform="translate(847.1846574925619 298.5986754238952) rotate(0 21.815342507438174 21.075839371592906)"><path d="M12.23 2.05 C16.25 -0.08, 22.61 -1.01, 27.28 0.32 C31.94 1.65, 37.36 6.08, 40.22 10.04 C43.08 13.99, 44.82 19.84, 44.44 24.06 C44.07 28.27, 41.56 32.27, 37.97 35.35 C34.38 38.43, 27.8 41.91, 22.89 42.54 C17.99 43.16, 12.18 41.66, 8.51 39.11 C4.85 36.56, 1.93 31.87, 0.9 27.23 C-0.12 22.59, 0.35 15.59, 2.36 11.29 C4.37 6.99, 10.99 3.07, 12.95 1.41 C14.9 -0.25, 13.97 1.03, 14.1 1.34 M29.25 0.71 C33.83 2.1, 39.33 6.89, 41.63 10.72 C43.92 14.54, 43.95 19.35, 43.01 23.67 C42.07 27.99, 39.41 33.5, 36 36.64 C32.58 39.78, 27.05 42.53, 22.51 42.49 C17.98 42.45, 12.55 39.52, 8.79 36.4 C5.03 33.29, 0.81 28.02, -0.06 23.78 C-0.92 19.54, 1.26 14.87, 3.58 10.96 C5.89 7.04, 9.32 2.13, 13.83 0.29 C18.35 -1.55, 27.88 -0.3, 30.67 -0.09 C33.47 0.11, 30.98 0.71, 30.61 1.52" stroke="none" stroke-width="0" fill="#7950f2"></path><path d="M17.05 1.2 C21.52 -0.05, 28.35 0.48, 32.48 2.51 C36.62 4.54, 40.04 9.03, 41.87 13.36 C43.71 17.7, 44.97 24.15, 43.5 28.5 C42.04 32.85, 37.26 37.18, 33.08 39.46 C28.89 41.73, 22.92 42.75, 18.37 42.13 C13.83 41.5, 8.9 39.11, 5.79 35.72 C2.67 32.33, -0.03 26.54, -0.32 21.79 C-0.6 17.04, 0.13 10.97, 4.09 7.2 C8.05 3.44, 19.62 0.13, 23.45 -0.78 C27.28 -1.69, 27.34 1.12, 27.08 1.76 M10.74 3.4 C14.19 1.22, 20.3 0.77, 24.97 1.81 C29.64 2.84, 35.66 6.06, 38.76 9.59 C41.86 13.12, 43.72 18.46, 43.56 22.96 C43.4 27.45, 40.8 33.5, 37.82 36.57 C34.84 39.64, 30.25 40.74, 25.69 41.37 C21.13 42.01, 14.52 42.78, 10.44 40.39 C6.36 38.01, 2.71 31.72, 1.23 27.04 C-0.25 22.35, -0.06 16.45, 1.56 12.28 C3.18 8.11, 9.36 3.54, 10.95 2.02 C12.54 0.5, 10.89 2.92, 11.1 3.16" stroke="#000000" stroke-width="4" fill="none"></path></g><g stroke-linecap="round" transform="translate(818.1846574925619 381.5986754238952) rotate(0 21.815342507438174 21.075839371592906)"><path d="M16.63 0.68 C20.85 -0.78, 26.63 -0.77, 30.83 1.05 C35.03 2.87, 39.7 7.33, 41.83 11.61 C43.95 15.89, 44.67 22.33, 43.57 26.71 C42.46 31.09, 39.16 35.41, 35.19 37.89 C31.22 40.38, 24.48 41.87, 19.74 41.63 C15 41.4, 10.13 39.67, 6.76 36.46 C3.4 33.25, -0.1 27.11, -0.45 22.38 C-0.8 17.64, 1.54 11.74, 4.66 8.05 C7.77 4.37, 15.93 1.34, 18.26 0.26 C20.59 -0.82, 18.75 1.1, 18.63 1.57 M29.74 1.01 C33.5 2.21, 37.85 6.59, 40.22 10.91 C42.6 15.24, 44.91 22.51, 43.98 26.95 C43.05 31.39, 38.62 34.91, 34.67 37.55 C30.72 40.2, 24.87 42.95, 20.28 42.83 C15.69 42.7, 10.42 39.95, 7.13 36.79 C3.84 33.62, 1.27 28.46, 0.53 23.84 C-0.22 19.23, 0.24 13.22, 2.66 9.12 C5.09 5.01, 10.3 0.26, 15.07 -0.77 C19.85 -1.79, 28.87 2.46, 31.31 2.95 C33.75 3.44, 29.86 2.13, 29.74 2.18" stroke="none" stroke-width="0" fill="#7950f2"></path><path d="M27.47 1.88 C31.85 2.98, 37.41 6.97, 40.06 10.76 C42.72 14.55, 44.01 20.14, 43.4 24.61 C42.79 29.07, 39.75 34.7, 36.4 37.55 C33.05 40.41, 27.93 41.55, 23.31 41.75 C18.68 41.95, 12.42 41.5, 8.64 38.75 C4.86 36, 1.65 29.92, 0.62 25.25 C-0.41 20.58, 0.38 14.72, 2.46 10.73 C4.53 6.74, 8.44 2.75, 13.07 1.3 C17.7 -0.14, 27.01 1.82, 30.23 2.04 C33.45 2.27, 32.5 2.54, 32.38 2.67 M11.95 2.13 C16.02 -0.06, 22.34 -1.29, 27.08 0.1 C31.83 1.49, 37.47 6.41, 40.43 10.48 C43.4 14.55, 45.24 20.45, 44.9 24.53 C44.56 28.61, 42.12 31.93, 38.4 34.97 C34.69 38.01, 27.62 42, 22.59 42.76 C17.55 43.53, 11.8 42.07, 8.2 39.55 C4.6 37.04, 1.96 32.44, 1.01 27.68 C0.05 22.91, 0.68 15.27, 2.47 10.94 C4.26 6.61, 10.13 3.22, 11.74 1.7 C13.34 0.19, 11.97 1.57, 12.11 1.87" stroke="#000000" stroke-width="4" fill="none"></path></g><g stroke-linecap="round" transform="translate(704.1846574925619 382.5986754238952) rotate(0 21.815342507438174 21.075839371592906)"><path d="M24.81 0.43 C29.27 0.43, 35.1 2.61, 38.24 5.72 C41.38 8.82, 43.64 14.39, 43.66 19.07 C43.68 23.75, 41.04 30.18, 38.36 33.81 C35.68 37.43, 31.97 39.77, 27.57 40.84 C23.18 41.91, 16.34 42.12, 11.98 40.24 C7.62 38.35, 3.4 33.58, 1.42 29.54 C-0.55 25.49, -1.11 20.43, 0.12 15.95 C1.35 11.46, 4.33 5.22, 8.8 2.63 C13.28 0.05, 23.8 0.68, 26.98 0.42 C30.15 0.16, 28.05 0.62, 27.85 1.06 M17.82 1.73 C21.69 0.76, 26.81 1.42, 31.09 3.62 C35.37 5.82, 41.37 10.86, 43.48 14.92 C45.58 18.99, 45.51 24.07, 43.73 28.01 C41.95 31.94, 36.96 36.49, 32.8 38.56 C28.65 40.62, 23.15 41.06, 18.78 40.39 C14.42 39.72, 9.95 37.68, 6.62 34.53 C3.29 31.38, -0.98 26.19, -1.19 21.49 C-1.4 16.8, 2.41 10.03, 5.34 6.37 C8.27 2.71, 14.52 0.52, 16.41 -0.46 C18.3 -1.44, 16.56 0.23, 16.68 0.48" stroke="none" stroke-width="0" fill="#7950f2"></path><path d="M31.49 1.36 C35.91 3.06, 40.43 8.15, 42.48 12.39 C44.52 16.62, 45.25 22.55, 43.78 26.76 C42.3 30.97, 37.62 35.19, 33.62 37.65 C29.62 40.1, 24.37 41.9, 19.78 41.5 C15.2 41.1, 9.43 38.23, 6.11 35.25 C2.8 32.27, 0.36 28.1, -0.13 23.63 C-0.63 19.16, 0.46 12.35, 3.15 8.45 C5.83 4.56, 10.25 0.7, 15.97 0.27 C21.69 -0.16, 33.36 4.11, 37.48 5.87 C41.61 7.62, 41 10.62, 40.71 10.79 M28.33 0.82 C32.45 1.85, 37.25 6.96, 39.87 10.75 C42.49 14.55, 44.81 19.04, 44.03 23.6 C43.26 28.16, 39.11 34.83, 35.22 38.12 C31.33 41.41, 25.26 43.53, 20.69 43.35 C16.12 43.17, 10.96 40.2, 7.81 37.06 C4.67 33.93, 2.52 28.68, 1.82 24.53 C1.13 20.37, 1.45 15.83, 3.63 12.13 C5.82 8.43, 10.95 4.32, 14.96 2.33 C18.96 0.35, 25.59 0.54, 27.68 0.21 C29.76 -0.13, 27.18 -0.24, 27.46 0.33" stroke="#000000" stroke-width="4" fill="none"></path></g><g stroke-linecap="round" transform="translate(585.1846574925619 382.5986754238952) rotate(0 21.815342507438174 21.075839371592906)"><path d="M24.37 -0.54 C28.92 -0.17, 34.82 2.9, 37.87 6.33 C40.93 9.76, 42.68 15.28, 42.71 20.04 C42.74 24.79, 40.66 31.24, 38.06 34.86 C35.45 38.47, 31.36 40.91, 27.08 41.73 C22.8 42.56, 16.62 41.98, 12.39 39.8 C8.15 37.63, 3.59 32.89, 1.68 28.66 C-0.23 24.43, -0.57 18.54, 0.94 14.42 C2.44 10.31, 6.43 6.26, 10.71 3.99 C14.99 1.73, 23.43 1.23, 26.62 0.85 C29.82 0.46, 29.87 1.23, 29.88 1.68 M21.85 -1.38 C25.92 -1.4, 31.91 3.56, 35.33 6.88 C38.75 10.19, 41.45 14.34, 42.37 18.5 C43.29 22.65, 43.32 28.14, 40.85 31.83 C38.38 35.52, 32.14 39.14, 27.54 40.66 C22.94 42.17, 17.33 42.64, 13.27 40.9 C9.21 39.17, 5.33 34.12, 3.16 30.25 C0.99 26.37, -0.87 22.05, 0.23 17.66 C1.34 13.27, 6.2 6.83, 9.82 3.91 C13.44 0.99, 19.56 0.82, 21.95 0.13 C24.33 -0.56, 23.86 -0.6, 24.13 -0.25" stroke="none" stroke-width="0" fill="#7950f2"></path><path d="M27.79 0.09 C31.87 1.4, 36.76 6.52, 39.42 10.52 C42.08 14.52, 44.3 19.7, 43.73 24.09 C43.16 28.48, 39.42 33.79, 36 36.88 C32.58 39.96, 27.71 42.42, 23.21 42.61 C18.72 42.81, 12.7 41.04, 9.02 38.06 C5.34 35.08, 2.19 29.32, 1.11 24.74 C0.03 20.16, 0.66 14.41, 2.56 10.58 C4.46 6.76, 7.16 3.06, 12.52 1.78 C17.88 0.5, 30.44 1.82, 34.72 2.91 C39.01 3.99, 38.62 7.86, 38.24 8.28 M12.22 2.69 C16 1.01, 23.8 -0.46, 28.41 0.72 C33.01 1.9, 37.22 6, 39.86 9.77 C42.5 13.54, 44.59 18.78, 44.24 23.32 C43.89 27.86, 41.34 33.66, 37.77 37.02 C34.2 40.39, 27.91 43.21, 22.8 43.49 C17.69 43.77, 10.62 41.47, 7.12 38.71 C3.61 35.94, 2.32 31.48, 1.77 26.91 C1.22 22.34, 1.87 15.62, 3.8 11.29 C5.73 6.96, 11.62 2.76, 13.34 0.96 C15.06 -0.84, 13.76 0.1, 14.14 0.48" stroke="#000000" stroke-width="4" fill="none"></path></g><g stroke-linecap="round" transform="translate(467.1846574925619 380.5986754238952) rotate(0 21.815342507438174 21.075839371592906)"><path d="M31.52 3.16 C35.61 5.01, 39.43 9.2, 41.32 13.26 C43.21 17.32, 43.98 23.34, 42.86 27.52 C41.73 31.71, 38.57 36.09, 34.55 38.37 C30.53 40.66, 23.46 41.69, 18.71 41.25 C13.96 40.8, 9.01 38.79, 6.04 35.71 C3.07 32.63, 1.11 27.38, 0.9 22.76 C0.7 18.15, 2.03 11.59, 4.81 8.03 C7.59 4.48, 12.67 1.96, 17.58 1.43 C22.49 0.9, 30.82 3.93, 34.28 4.87 C37.73 5.8, 38.37 6.71, 38.33 7.03 M31.74 3.39 C35.93 5.19, 39.1 9.74, 40.84 13.5 C42.59 17.26, 43.25 21.82, 42.23 25.96 C41.22 30.1, 38.4 35.56, 34.76 38.35 C31.13 41.14, 25.17 43.31, 20.43 42.69 C15.7 42.07, 9.86 37.76, 6.33 34.62 C2.79 31.48, -0.31 28.05, -0.76 23.83 C-1.2 19.61, 0.99 13.09, 3.65 9.29 C6.3 5.49, 10.55 2.12, 15.17 1.03 C19.79 -0.05, 28.94 2.33, 31.38 2.8 C33.82 3.28, 29.98 3.62, 29.82 3.88" stroke="none" stroke-width="0" fill="#7950f2"></path><path d="M30.62 2.28 C34.6 4.02, 38.59 9.15, 40.59 13.06 C42.6 16.97, 43.71 21.48, 42.68 25.74 C41.64 30, 38.35 36.05, 34.41 38.63 C30.46 41.2, 23.75 41.76, 18.98 41.19 C14.22 40.62, 9.02 38.38, 5.83 35.22 C2.65 32.06, 0.35 26.65, -0.12 22.21 C-0.58 17.78, 0.48 12.07, 3.04 8.61 C5.61 5.15, 9.52 1.95, 15.27 1.47 C21.01 0.99, 33.16 4.08, 37.52 5.72 C41.88 7.35, 41.79 11.07, 41.43 11.28 M21.42 -0.7 C25.9 -1.21, 31.27 2.3, 34.86 5.08 C38.46 7.86, 41.65 11.75, 42.96 15.96 C44.28 20.17, 44.61 26.13, 42.77 30.33 C40.93 34.54, 36.53 39.58, 31.91 41.19 C27.3 42.8, 19.98 41.11, 15.11 39.97 C10.23 38.83, 5.33 37.82, 2.65 34.37 C-0.02 30.92, -1.7 24.07, -0.95 19.26 C-0.2 14.45, 3.79 8.8, 7.15 5.52 C10.52 2.23, 17.11 0.36, 19.24 -0.43 C21.36 -1.21, 19.62 0.47, 19.91 0.79" stroke="#000000" stroke-width="4" fill="none"></path></g><g stroke-linecap="round" transform="translate(348.1846574925619 379.5986754238952) rotate(0 21.815342507438174 21.075839371592906)"><path d="M22.12 -0.04 C26.51 -0.28, 32.11 1.63, 35.59 4.47 C39.07 7.31, 42.02 12.46, 43.01 17.02 C44 21.58, 43.56 27.77, 41.53 31.84 C39.49 35.92, 35.23 40.04, 30.78 41.47 C26.34 42.9, 19.28 42.02, 14.85 40.42 C10.42 38.82, 6.53 35.57, 4.21 31.88 C1.9 28.2, 0.56 22.62, 0.98 18.33 C1.39 14.04, 3.12 9.34, 6.71 6.13 C10.3 2.92, 19.31 0.08, 22.51 -0.93 C25.72 -1.94, 25.72 -0.34, 25.96 0.06 M30.08 2.59 C34.38 4.24, 39.91 7.82, 42.18 11.78 C44.45 15.74, 44.63 21.75, 43.69 26.33 C42.75 30.91, 40.12 36.74, 36.51 39.27 C32.9 41.79, 27.08 41.84, 22.02 41.48 C16.96 41.11, 9.79 40, 6.15 37.08 C2.5 34.16, 0.61 28.76, 0.14 23.97 C-0.32 19.18, 0.95 11.93, 3.36 8.34 C5.78 4.75, 10.06 3.63, 14.63 2.45 C19.19 1.27, 28.22 1.38, 30.76 1.28 C33.3 1.18, 30.07 1.28, 29.85 1.87" stroke="none" stroke-width="0" fill="#7950f2"></path><path d="M15.28 1.46 C19.4 -0.12, 25.14 -0.41, 29.55 1.36 C33.96 3.13, 39.56 8.16, 41.77 12.1 C43.98 16.03, 43.88 20.56, 42.81 24.99 C41.74 29.42, 39.02 35.71, 35.32 38.68 C31.62 41.65, 25.27 43.05, 20.6 42.82 C15.93 42.59, 10.61 40.47, 7.31 37.3 C4.01 34.13, 1.6 28.49, 0.81 23.79 C0.02 19.1, -0.23 13.02, 2.57 9.13 C5.36 5.24, 14.49 1.84, 17.58 0.44 C20.67 -0.95, 20.91 0.53, 21.09 0.77 M32.69 3.05 C36.44 5.07, 39.5 9.11, 41.34 13.4 C43.18 17.69, 45.28 24.57, 43.73 28.82 C42.18 33.07, 36.13 36.52, 32.04 38.91 C27.96 41.31, 23.76 43.64, 19.21 43.19 C14.67 42.74, 8.06 39.92, 4.77 36.21 C1.49 32.51, -0.6 25.66, -0.51 20.95 C-0.41 16.25, 2.25 11.27, 5.35 7.97 C8.45 4.67, 13.64 2.25, 18.12 1.15 C22.59 0.05, 30.05 0.87, 32.18 1.36 C34.32 1.86, 31.22 3.54, 30.91 4.14" stroke="#000000" stroke-width="4" fill="none"></path></g><g stroke-linecap="round" transform="translate(235.18465749256188 379.5986754238952) rotate(0 21.815342507438174 21.075839371592906)"><path d="M17.08 0.6 C21.45 -0.8, 27.79 -0.79, 31.86 1.45 C35.94 3.68, 39.7 9.71, 41.56 14.01 C43.41 18.3, 44.37 23.08, 43.01 27.21 C41.66 31.34, 37.42 36.18, 33.43 38.77 C29.44 41.37, 23.67 43.48, 19.04 42.79 C14.42 42.11, 8.83 38.1, 5.69 34.68 C2.55 31.26, 0.48 26.59, 0.21 22.28 C-0.07 17.98, 0.18 12.54, 4.05 8.86 C7.91 5.18, 19.18 1.38, 23.39 0.2 C27.59 -0.97, 29.1 1.47, 29.27 1.79 M17.41 -0.67 C21.75 -1.72, 28.29 -0.38, 32.29 2.3 C36.3 4.98, 39.79 10.83, 41.45 15.44 C43.11 20.04, 44 26.14, 42.26 29.94 C40.52 33.74, 34.97 36.4, 30.98 38.23 C27 40.06, 22.84 41.45, 18.35 40.92 C13.86 40.4, 6.91 38.31, 4.04 35.07 C1.17 31.83, 1.15 26.17, 1.13 21.47 C1.12 16.78, 1.2 10.65, 3.96 6.89 C6.72 3.12, 15.25 -0.2, 17.7 -1.13 C20.16 -2.07, 18.46 0.81, 18.69 1.28" stroke="none" stroke-width="0" fill="#7950f2"></path><path d="M30.08 1.04 C34.47 2.36, 39.58 7.21, 41.85 11.43 C44.12 15.65, 44.84 22.05, 43.71 26.36 C42.57 30.66, 38.98 34.5, 35.04 37.28 C31.09 40.06, 24.79 43.1, 20.03 43.03 C15.27 42.96, 9.95 40.07, 6.48 36.87 C3 33.67, -0.33 28.32, -0.82 23.83 C-1.31 19.34, 0.96 13.61, 3.52 9.93 C6.09 6.26, 9.58 2.85, 14.58 1.78 C19.57 0.71, 29.93 2.89, 33.49 3.5 C37.05 4.12, 36.1 5.12, 35.94 5.48 M29.42 0.38 C33.68 1.39, 39.83 6.23, 42.32 10.42 C44.81 14.61, 45.64 20.8, 44.37 25.5 C43.09 30.2, 38.73 36.09, 34.69 38.61 C30.64 41.14, 24.53 41.09, 20.09 40.66 C15.65 40.23, 11.18 38.89, 8.04 36.02 C4.89 33.15, 1.87 27.65, 1.23 23.45 C0.6 19.25, 2.19 14.52, 4.22 10.8 C6.26 7.07, 9.07 2.51, 13.44 1.11 C17.82 -0.3, 27.76 2.16, 30.48 2.36 C33.21 2.57, 29.96 1.93, 29.78 2.32" stroke="#000000" stroke-width="4" fill="none"></path></g><g stroke-linecap="round" transform="translate(114.18465749256188 383.5986754238952) rotate(0 21.815342507438174 21.075839371592906)"><path d="M12.32 1.75 C16.3 -0.37, 23.4 -0.03, 27.78 1.17 C32.16 2.37, 36.09 5.53, 38.58 8.94 C41.07 12.35, 42.97 17.28, 42.74 21.64 C42.5 26.01, 40.12 31.72, 37.17 35.12 C34.22 38.51, 29.75 41.32, 25.04 42.03 C20.33 42.74, 13.04 41.97, 8.9 39.35 C4.76 36.73, 1.25 30.83, 0.18 26.31 C-0.89 21.78, 0.25 16.29, 2.48 12.19 C4.72 8.09, 11.53 3.65, 13.6 1.72 C15.66 -0.22, 14.76 0.19, 14.85 0.56 M18.8 0.83 C23.03 -0.16, 28.8 0.3, 32.75 2.21 C36.69 4.12, 40.71 8.26, 42.48 12.32 C44.26 16.38, 44.76 21.87, 43.39 26.56 C42.01 31.24, 38.45 37.96, 34.24 40.43 C30.02 42.9, 23.12 42.13, 18.11 41.36 C13.09 40.59, 7.3 39.29, 4.17 35.81 C1.04 32.34, -1.02 25.05, -0.68 20.51 C-0.35 15.98, 3.27 11.97, 6.16 8.63 C9.06 5.28, 14.8 1.84, 16.7 0.42 C18.6 -0.99, 17.21 0.02, 17.57 0.13" stroke="none" stroke-width="0" fill="#7950f2"></path><path d="M29.5 2.13 C33.89 3.36, 39.32 7.47, 41.56 11.09 C43.79 14.72, 43.78 19.55, 42.91 23.87 C42.04 28.19, 39.8 33.99, 36.34 37.03 C32.89 40.07, 27.06 42.13, 22.17 42.11 C17.29 42.1, 10.52 39.75, 7.05 36.96 C3.58 34.17, 2.11 29.76, 1.36 25.37 C0.62 20.99, 0.47 14.65, 2.58 10.66 C4.69 6.67, 8.81 2.73, 14.03 1.45 C19.24 0.17, 30.26 2.21, 33.86 2.98 C37.47 3.74, 35.94 5.83, 35.66 6.06 M27.08 0.57 C31.69 1.59, 38.73 6.03, 41.38 9.79 C44.03 13.55, 43.78 18.82, 42.97 23.13 C42.15 27.43, 40.05 32.58, 36.5 35.61 C32.96 38.64, 26.52 41.11, 21.71 41.29 C16.9 41.47, 11 39.3, 7.66 36.68 C4.31 34.07, 2.26 30.08, 1.61 25.62 C0.96 21.15, 1.97 13.78, 3.75 9.9 C5.53 6.03, 8.28 3.96, 12.27 2.35 C16.26 0.74, 24.87 0.23, 27.69 0.26 C30.51 0.3, 29.02 2.33, 29.19 2.55" stroke="#000000" stroke-width="4" fill="none"></path></g><g stroke-linecap="round" transform="translate(670.1846574925619 212.5986754238952) rotate(0 21.815342507438174 21.075839371592906)"><path d="M12.8 2.49 C16.78 0.56, 24.3 -0.86, 28.87 0.33 C33.44 1.51, 37.85 5.6, 40.21 9.6 C42.57 13.59, 43.76 19.94, 43 24.29 C42.25 28.63, 39.17 32.73, 35.69 35.69 C32.21 38.65, 26.66 41.67, 22.13 42.04 C17.6 42.41, 12.06 40.59, 8.5 37.91 C4.95 35.22, 1.86 30.51, 0.79 25.93 C-0.29 21.36, -0.34 14.66, 2.03 10.48 C4.4 6.3, 12.28 2.59, 15.02 0.84 C17.75 -0.91, 18.38 -0.53, 18.45 -0.01 M28.02 -0.03 C32.3 1.09, 37.78 6.5, 40.45 10.76 C43.12 15.03, 44.7 21.35, 44.02 25.55 C43.34 29.75, 40.12 33.4, 36.37 35.98 C32.62 38.55, 26.07 40.61, 21.52 40.98 C16.98 41.35, 12.67 40.74, 9.11 38.21 C5.55 35.67, 1.2 30.32, 0.16 25.75 C-0.87 21.18, 0.61 14.83, 2.89 10.81 C5.17 6.78, 9.61 3.07, 13.84 1.57 C18.07 0.08, 25.78 1.96, 28.27 1.83 C30.76 1.69, 29.02 0.73, 28.79 0.76" stroke="none" stroke-width="0" fill="#7950f2"></path><path d="M28.93 0.58 C33.24 1.67, 39.22 6.26, 41.52 10.47 C43.81 14.67, 43.58 21.2, 42.69 25.81 C41.8 30.43, 39.89 35.46, 36.15 38.15 C32.42 40.84, 25.16 42.32, 20.27 41.95 C15.39 41.59, 10.15 38.84, 6.83 35.94 C3.5 33.05, 0.89 29, 0.32 24.61 C-0.25 20.22, 0.83 13.46, 3.39 9.63 C5.95 5.81, 11.23 2.88, 15.7 1.66 C20.16 0.44, 27.62 2.24, 30.19 2.31 C32.76 2.39, 31.2 1.94, 31.11 2.11 M31.58 0.69 C35.6 2.51, 38.48 8.42, 40.28 12.61 C42.08 16.79, 43.26 21.71, 42.4 25.79 C41.54 29.87, 38.97 34.46, 35.13 37.08 C31.28 39.71, 23.92 41.77, 19.33 41.56 C14.74 41.34, 10.66 38.98, 7.6 35.81 C4.54 32.64, 1.44 26.86, 0.97 22.54 C0.49 18.23, 2.26 13.6, 4.75 9.92 C7.25 6.24, 11.6 2.01, 15.94 0.45 C20.28 -1.12, 28.23 0.48, 30.78 0.53 C33.34 0.58, 31.25 0, 31.25 0.74" stroke="#000000" stroke-width="4" fill="none"></path></g><g stroke-linecap="round" transform="translate(936.1846574925619 382.5986754238952) rotate(0 21.81534250743823 21.075839371592906)"><path d="M29.58 2.13 C33.93 3.77, 39.46 8.14, 41.72 12.13 C43.98 16.11, 44.32 21.71, 43.16 26.05 C41.99 30.39, 38.37 35.37, 34.74 38.16 C31.11 40.94, 26.02 42.9, 21.39 42.76 C16.76 42.62, 10.59 40.47, 6.96 37.3 C3.33 34.13, 0.21 28.32, -0.38 23.75 C-0.96 19.18, 0.82 13.69, 3.46 9.87 C6.11 6.05, 9.99 1.5, 15.49 0.81 C20.99 0.13, 32.59 4.11, 36.48 5.74 C40.36 7.37, 39.13 10.59, 38.8 10.6 M29.08 2.93 C33.2 4.44, 39.18 8.65, 41.46 12.33 C43.74 16.01, 43.63 20.63, 42.76 24.99 C41.89 29.34, 39.71 35.74, 36.24 38.46 C32.77 41.19, 26.72 41.47, 21.92 41.33 C17.11 41.2, 11.15 40.43, 7.41 37.66 C3.68 34.9, -0.05 29.24, -0.5 24.75 C-0.94 20.25, 1.88 14.75, 4.74 10.71 C7.6 6.68, 12.59 1.86, 16.68 0.55 C20.77 -0.76, 27.2 2.72, 29.27 2.86 C31.34 2.99, 29.14 0.97, 29.09 1.33" stroke="none" stroke-width="0" fill="#7950f2"></path><path d="M26.73 0.85 C31.3 1.83, 36.9 5.72, 39.74 9.17 C42.59 12.62, 44.22 17.28, 43.82 21.54 C43.42 25.81, 40.46 31.23, 37.34 34.74 C34.23 38.24, 29.73 41.81, 25.13 42.56 C20.52 43.3, 13.74 41.78, 9.71 39.22 C5.69 36.66, 2.34 31.57, 0.99 27.19 C-0.37 22.8, -0.16 16.99, 1.59 12.9 C3.33 8.82, 6.71 4.65, 11.48 2.68 C16.25 0.71, 26.72 1.07, 30.18 1.09 C33.65 1.11, 32.35 2.48, 32.27 2.82 M15.25 1.1 C19.25 -0.69, 26.45 -0.99, 30.72 0.76 C34.99 2.51, 38.78 7.18, 40.9 11.6 C43.02 16.02, 44.41 22.75, 43.44 27.29 C42.47 31.84, 39.23 36.46, 35.09 38.87 C30.94 41.28, 23.18 42.21, 18.55 41.75 C13.92 41.29, 10.55 39.31, 7.32 36.13 C4.09 32.95, -0.25 27.36, -0.84 22.66 C-1.42 17.96, 1.13 11.8, 3.8 7.93 C6.48 4.06, 13.12 0.34, 15.22 -0.55 C17.31 -1.44, 16.16 2.07, 16.39 2.58" stroke="#000000" stroke-width="4" fill="none"></path></g><g transform="translate(119 428.6745147954881) rotate(0 10 12.5)"><text x="0" y="18" font-family="Virgil, Segoe UI Emoji" font-size="20px" fill="#000000" text-anchor="start" style="white-space: pre;" direction="ltr">15</text></g><g transform="translate(183 426.6745147954881) rotate(0 10 12.5)"><text x="0" y="18" font-family="Virgil, Segoe UI Emoji" font-size="20px" fill="#000000" text-anchor="start" style="white-space: pre;" direction="ltr">16</text></g><g transform="translate(245 431.6745147954881) rotate(0 9 12.5)"><text x="0" y="18" font-family="Virgil, Segoe UI Emoji" font-size="20px" fill="#000000" text-anchor="start" style="white-space: pre;" direction="ltr">17</text></g><g transform="translate(298 424.6745147954881) rotate(0 11.5 12.5)"><text x="0" y="18" font-family="Virgil, Segoe UI Emoji" font-size="20px" fill="#000000" text-anchor="start" style="white-space: pre;" direction="ltr">18</text></g><g transform="translate(360 421.6745147954881) rotate(0 10 12.5)"><text x="0" y="18" font-family="Virgil, Segoe UI Emoji" font-size="20px" fill="#000000" text-anchor="start" style="white-space: pre;" direction="ltr">19</text></g><g transform="translate(413 426.6745147954881) rotate(0 15 12.5)"><text x="0" y="18" font-family="Virgil, Segoe UI Emoji" font-size="20px" fill="#000000" text-anchor="start" style="white-space: pre;" direction="ltr">20</text></g><g transform="translate(481 428.6745147954881) rotate(0 11 12.5)"><text x="0" y="18" font-family="Virgil, Segoe UI Emoji" font-size="20px" fill="#000000" text-anchor="start" style="white-space: pre;" direction="ltr">21</text></g><g transform="translate(535 431.6745147954881) rotate(0 15 12.5)"><text x="0" y="18" font-family="Virgil, Segoe UI Emoji" font-size="20px" fill="#000000" text-anchor="start" style="white-space: pre;" direction="ltr">22</text></g><g transform="translate(596 434.6745147954881) rotate(0 15 12.5)"><text x="0" y="18" font-family="Virgil, Segoe UI Emoji" font-size="20px" fill="#000000" text-anchor="start" style="white-space: pre;" direction="ltr">23</text></g><g transform="translate(653 435.6745147954881) rotate(0 14.5 12.5)"><text x="0" y="18" font-family="Virgil, Segoe UI Emoji" font-size="20px" fill="#000000" text-anchor="start" style="white-space: pre;" direction="ltr">24</text></g><g transform="translate(719 432.6745147954881) rotate(0 14.5 12.5)"><text x="0" y="18" font-family="Virgil, Segoe UI Emoji" font-size="20px" fill="#000000" text-anchor="start" style="white-space: pre;" direction="ltr">25</text></g><g transform="translate(776 433.6745147954881) rotate(0 14.5 12.5)"><text x="0" y="18" font-family="Virgil, Segoe UI Emoji" font-size="20px" fill="#000000" text-anchor="start" style="white-space: pre;" direction="ltr">26</text></g><g transform="translate(836 429.6745147954881) rotate(0 13.5 12.5)"><text x="0" y="18" font-family="Virgil, Segoe UI Emoji" font-size="20px" fill="#000000" text-anchor="start" style="white-space: pre;" direction="ltr">27</text></g><g transform="translate(891 431.6745147954881) rotate(0 16 12.5)"><text x="0" y="18" font-family="Virgil, Segoe UI Emoji" font-size="20px" fill="#000000" text-anchor="start" style="white-space: pre;" direction="ltr">28</text></g><g transform="translate(951 430.6745147954881) rotate(0 14 12.5)"><text x="0" y="18" font-family="Virgil, Segoe UI Emoji" font-size="20px" fill="#000000" text-anchor="start" style="white-space: pre;" direction="ltr">29</text></g><g transform="translate(1009 432.6745147954881) rotate(0 14.5 12.5)"><text x="0" y="18" font-family="Virgil, Segoe UI Emoji" font-size="20px" fill="#000000" text-anchor="start" style="white-space: pre;" direction="ltr">30</text></g><g stroke-linecap="round"><g stroke-opacity="0.6" fill-opacity="0.6" transform="translate(44 124.90119936580061) rotate(0 123.23381127491594 0.5277093855508497)"><path d="M-1.12 0.18 C40.12 0.45, 206.05 1.04, 247.59 0.83" stroke="#495057" stroke-width="1.5" fill="none" stroke-dasharray="1.5 7"></path></g></g><g stroke-linecap="round"><g stroke-opacity="0.6" fill-opacity="0.6" transform="translate(43.00000000000003 234.9167028708747) rotate(0 72.60487529858946 -0.26446178779002594)"><path d="M-1.06 -1.08 C23.42 -0.91, 121.88 0.22, 146.27 0.55" stroke="#495057" stroke-width="1.5" fill="none" stroke-dasharray="1.5 7"></path></g></g><g stroke-linecap="round"><g stroke-opacity="0.6" fill-opacity="0.6" transform="translate(42.39512470141051 313.6994746301531) rotate(0 45.3107469815761 -0.8550692368264095)"><path d="M-0.61 -0.85 C14.7 -1.07, 76.03 -0.92, 91.23 -0.75" stroke="#495057" stroke-width="1.5" fill="none" stroke-dasharray="1.5 7"></path></g></g><g stroke-linecap="round"><g stroke-opacity="0.6" fill-opacity="0.6" transform="translate(37.689253018423926 402.29008207918946) rotate(0 36.88616853225976 -0.19255311861633118)"><path d="M1.11 -0.74 C13.1 -0.59, 60.7 0.19, 72.67 0.35" stroke="#495057" stroke-width="1.5" fill="none" stroke-dasharray="1.5 7"></path></g></g><g stroke-opacity="0.6" fill-opacity="0.6" transform="translate(14 113.43501284236311) rotate(0 3.5 12.5)"><text x="0" y="18" font-family="Virgil, Segoe UI Emoji" font-size="20px" fill="#495057" text-anchor="start" style="white-space: pre;" direction="ltr">1</text></g><g stroke-opacity="0.6" fill-opacity="0.6" transform="translate(14 219.4350128423631) rotate(0 8 12.5)"><text x="0" y="18" font-family="Virgil, Segoe UI Emoji" font-size="20px" fill="#495057" text-anchor="start" style="white-space: pre;" direction="ltr">2</text></g><g stroke-opacity="0.6" fill-opacity="0.6" transform="translate(13 301.4350128423631) rotate(0 8 12.5)"><text x="0" y="18" font-family="Virgil, Segoe UI Emoji" font-size="20px" fill="#495057" text-anchor="start" style="white-space: pre;" direction="ltr">3</text></g><g stroke-opacity="0.6" fill-opacity="0.6" transform="translate(10 390.4350128423631) rotate(0 7.5 12.5)"><text x="0" y="18" font-family="Virgil, Segoe UI Emoji" font-size="20px" fill="#495057" text-anchor="start" style="white-space: pre;" direction="ltr">4</text></g></svg>